---------------------------------------------------------------------------------------
------------------KARADAYI.E15.DVDRip.XviD-panfhon [FreeBirds Team]--------------------
---------------------------------------------------------------------------------------

---------------------------------------Plot--------------------------------------------

The new series of Ay Yap─▒m production with Kenan Imirzagioglu, Berguzar Korel and Cetin Tekindor. A happy family living in Beyazit during 1970ΓÇÖs. On a day of Mahir Kara's engagement everything changes. Nazif Kara, the head of the family is found guilt and sentenced to death for a crime he did not commit. On that day Mahir gives up himself, his life and the oneΓÇÖs he loves. He has only one mission. Finding the true murderer, seeking justice and saving his father from the gallows. On this quest however, there is also an impossible love story.

-------------------------------------Media Info----------------------------------------

General
Complete name                  : KARADAYI.E15.DVDRip.XviD-panfhon.avi
Format                         : AVI
Format/Info                    : Audio Video Interleave
File size                      : 994 MiB
Duration                       : 1h 58mn
Overall bit rate               : 1 173 Kbps

Video
ID                             : 0
Format                         : MPEG-4 Visual
Format profile                 : Advanced Simple@L5
Format settings, BVOP          : 2
Format settings, QPel          : No
Format settings, GMC           : No warppoints
Format settings, Matrix        : Default (H.263)
Codec ID                       : XVID
Codec ID/Hint                  : XviD
Duration                       : 1h 58mn
Bit rate                       : 1 039 Kbps
Width                          : 624 pixels
Height                         : 352 pixels
Display aspect ratio           : 16:9
Frame rate                     : 25.000 fps
Color space                    : YUV
Chroma subsampling             : 4:2:0
Bit depth                      : 8 bits
Scan type                      : Progressive
Compression mode               : Lossy
Bits/(Pixel*Frame)             : 0.189
Stream size                    : 880 MiB (89%)
Writing library                : XviD 1.2.1 (UTC 2008-12-04)

Audio
ID                             : 1
Format                         : MPEG Audio
Format version                 : Version 1
Format profile                 : Layer 3
Mode                           : Joint stereo
Mode extension                 : MS Stereo
Codec ID                       : 55
Codec ID/Hint                  : MP3
Duration                       : 1h 58mn
Bit rate mode                  : Constant
Bit rate                       : 128 Kbps
Channel(s)                     : 2 channels
Sampling rate                  : 48.0 KHz
Compression mode               : Lossy
Stream size                    : 108 MiB (11%)
Alignment                      : Aligned on interleaves
Interleave, duration           : 160 ms (4.00 video frames)
Interleave, preload duration   : 216 ms
Title                          : KRDY.15.avi_track_1_
Writing library                : LAME3.99r
Encoding settings              : -m j -V 4 -q 2 -lowpass 17 -b 128

--------------------------------------------------------------------------------------
-------------------------------------Screenshots--------------------------------------
                           http://i.imgur.com/nEMfcB4.png
                           http://i.imgur.com/vWSzic2.png

                      All credits goes to panfhon [FreeBirds Team]